inDegrees=no
num_controls=7
num_derivatives=13
num_iterations=114
num_multipliers=7
num_parameters=0
num_slacks=7
num_states=26
objective=5.094398
objective_accelerations=0.614101
objective_balance=0.019220
objective_effort=0.162841
objective_height=4.272139
objective_ligament=0.026097
solver_duration=1252.896535
status=Solve_Succeeded
success=true
DataType=double
version=3
OpenSimVersion=4.4-2022-07-23-0e9fedc
endheader
time	/jointset/ground_pelvis/pelvis_tilt/value	/jointset/ground_pelvis/pelvis_tx/value	/jointset/ground_pelvis/pelvis_ty/value	/jointset/hip_l/hip_flexion_l/value	/jointset/hip_l/hip_adduction_l/value	/jointset/hip_l/hip_rotation_l/value	/jointset/back/lumbar_extension/value	/jointset/patellofemoral_l/patellar_flexion_l/value	/jointset/knee_l/knee_flexion_l/value	/jointset/knee_l/knee_adduction_l/value	/jointset/knee_l/knee_rotation_l/value	/jointset/ankle_l/ankle_angle_l/value	/jointset/subtalar_l/subtalar_angle_l/value	/jointset/ground_pelvis/pelvis_tilt/speed	/jointset/ground_pelvis/pelvis_tx/speed	/jointset/ground_pelvis/pelvis_ty/speed	/jointset/hip_l/hip_flexion_l/speed	/jointset/hip_l/hip_adduction_l/speed	/jointset/hip_l/hip_rotation_l/speed	/jointset/back/lumbar_extension/speed	/jointset/patellofemoral_l/patellar_flexion_l/speed	/jointset/knee_l/knee_flexion_l/speed	/jointset/knee_l/knee_adduction_l/speed	/jointset/knee_l/knee_rotation_l/speed	/jointset/ankle_l/ankle_angle_l/speed	/jointset/subtalar_l/subtalar_angle_l/speed	/forceset/tau_hip_flexion_l	/forceset/tau_hip_adduction_l	/forceset/tau_hip_rotation_l	/forceset/tau_knee_flexion_l	/forceset/tau_ankle_angle_l	/forceset/tau_subtalar_angle_l	/forceset/tau_lumbar_extension	lambda_cid13_p0	lambda_cid13_p1	lambda_cid13_p2	lambda_cid13_p3	lambda_cid13_p4	lambda_cid13_p5	lambda_cid14_p0	/jointset/ground_pelvis/pelvis_tilt/accel	/jointset/ground_pelvis/pelvis_tx/accel	/jointset/ground_pelvis/pelvis_ty/accel	/jointset/hip_l/hip_flexion_l/accel	/jointset/hip_l/hip_adduction_l/accel	/jointset/hip_l/hip_rotation_l/accel	/jointset/back/lumbar_extension/accel	/jointset/patellofemoral_l/patellar_flexion_l/accel	/jointset/knee_l/knee_flexion_l/accel	/jointset/knee_l/knee_adduction_l/accel	/jointset/knee_l/knee_rotation_l/accel	/jointset/ankle_l/ankle_angle_l/accel	/jointset/subtalar_l/subtalar_angle_l/accel	gamma_cid13_p0	gamma_cid13_p1	gamma_cid13_p2	gamma_cid13_p3	gamma_cid13_p4	gamma_cid13_p5	gamma_cid14_p0
1	-0.4250779262335123	0.01557525155637249	0.6367780137111949	1.549037607050696	-0.3597501418636729	0.1442893840205486	-0.4363012380553065	1.395218360459239	1.395218360459096	-0.00678635784357167	-0.1744862747024983	0.4347577977694755	0.2272862455887186	-0.1344720836818446	-0.0001170683106748859	0.02912434083340966	0.03238888775726369	-0.0007995475426582495	-0.0469388440021879	-0.0003316253726929238	-0.1483774067117048	-0.1483774067117186	-0.01247988661563809	-8.30839447287931e-05	-0.05949008050441146	-0.03545941050969076	-0.2245434691108499	0.04378951528532061	-0.001311265514528777	-0.2626296887206379	-0.05825024083951969	0.01017575004421187	0.199282302197802	-49.54174179769395	7.544181130664009	-5.240712988614138	6.174294536960107	-531.3787260950438	-66.36803565205238	-0.02433091308145439	1.577125782938547	0.2292706812750918	1.720705318092597	-5.99212984557989	-0.2007519571566014	-1.543964476424643	-0.04537508182473098	-5.104767382220285	-5.104767382220281	-0.6637451677178753	-0.008300886382936655	-1.132029016933842	-0.9598528465061791	-8.567610805216932e-09	-8.932196026679137e-08	6.282066860463185e-08	3.048631080906408e-09	-9.30292592828858e-09	-6.784078072629352e-08	-1.394043258365268e-08
1.01	-0.4263445198239363	0.01558553464358085	0.6371550858071621	1.549062971214213	-0.3597675542237154	0.1437428897331312	-0.4363058084083515	1.393479684628014	1.393479684627875	-0.006943404284991647	-0.1744862449336228	0.4341063556389474	0.2268847815614124	-0.1188363632465813	0.002178454093644715	0.04628302379327646	-0.02731559628946921	-0.002684205325544875	-0.0623586147569147	-0.0005763723174530983	-0.1993575864421739	-0.1993575864421616	-0.01892967513656339	8.009827799671583e-05	-0.07080752406451835	-0.04483241934823247	-0.2250043122688981	0.04387583163143072	-0.001346414154516348	-0.2616152191242155	-0.0586386652830969	0.01018616195407442	0.1995360796395103	-49.6385092512235	7.516882652527291	-5.190991185661911	6.137041839360529	-531.2253488535209	-66.22237972193759	-0.0243509456392669	1.558335804388804	0.230408529211816	1.71238847155605	-5.959539227259304	-0.18252439039518	-1.540792256395415	-0.01311355693390585	-5.094613555105727	-5.0946135551013	-0.6356533663661699	0.02729582229429637	-1.132985870641169	-0.9258699918759544	-1.105036824350862e-08	-1.130202572674046e-07	7.862765792285079e-08	1.306465584848054e-09	-1.557845546311071e-08	-7.563529627090281e-08	-1.869894790759634e-08
1.02	-0.4274544480839528	0.01561891605667361	0.6377035324700502	1.54849130422868	-0.3598038535018738	0.1430422359617297	-0.4363126440416842	1.391231212942156	1.391231212942013	-0.00716496014628959	-0.1744848497333336	0.4333414623037711	0.2263896184278522	-0.1031390175884666	0.004502596866207107	0.06339925421796413	-0.08701734205772847	-0.004576931169951363	-0.07777074076760521	-0.0007846815074503683	-0.2503365776384976	-0.2503365776384592	-0.0253817705409616	0.000190002328452337	-0.08218032142833429	-0.05419923176072349	-0.2254651554264562	0.0439621479770649	-0.001381562796277089	-0.2606007495279656	-0.05902708972691059	0.01019657386305289	0.1997898570816941	-49.74073045646578	7.489911210149212	-5.14060441247991	6.102373093064176	-531.1980277374569	-66.06962475692265	-0.02437119165984932	1.589450827508792	0.2349947549237345	1.712214811056761	-5.991582189885258	-0.2023655694605554	-1.542435527617266	-0.03808753086792776	-5.104529675391095	-5.10452967539107	-0.664206544412499	-0.01895652083679973	-1.143099777675451	-0.9586135612959011	-1.285639801895136e-08	-1.342354445830089e-07	9.454682129116577e-08	-1.308404157034063e-09	-2.06826611077536e-08	-8.129458047078552e-08	-2.339578662014139e-08
1.03	-0.4284072744930114	0.01567571742874459	0.6384228210609378	1.547322980514378	-0.3598590902130613	0.1421875711594826	-0.4363209998661849	1.38847311330099	1.388473113301039	-0.007451011177584505	-0.1744825980683401	0.4324625735466146	0.2258009008993033	-0.0874342145453512	0.006865998809498271	0.0804406079540286	-0.1466122526452786	-0.006469422062171882	-0.09315426111167693	-0.0008420166302585486	-0.3012677886703747	-0.3012677886703619	-0.03182578107278393	0.0002523874900790124	-0.09360579915594618	-0.06353611280215074	-0.2257580744550328	0.04403436524768944	-0.001422208931923799	-0.2593470010005309	-0.05934766591110127	0.01024503762638127	0.1999622123387187	-49.79434930764493	7.426431163174213	-5.071292421561635	6.011941360325841	-530.8715907116891	-65.92340098800901	-0.02439955885614722	1.55980181921677	0.2382603012484198	1.697412068219452	-5.938174414387465	-0.1825549892597168	-1.535144033072384	0.0171135119740943	-5.085076881367466	-5.085076881370854	-0.634124552481936	0.0176578639596911	-1.143536801899916	-0.9199896962590388	-1.46555224100793e-08	-1.554252940446847e-07	1.10467129292645e-07	-3.932179044281734e-09	-2.577491446780281e-08	-8.693207659572203e-08	-2.80919959795089e-08
1.04	-0.4292032915163794	0.01575640229769254	0.6393119864718512	1.545559761910087	-0.3599332246611783	0.1411793044047147	-0.4363285950377144	1.38520616953665	1.385206169536817	-0.007801427563346225	-0.1744799581858971	0.431469177005823	0.2251190616962026	-0.07177714044198159	0.009279296241601415	0.09737461822349193	-0.2059963200806967	-0.008356478560658111	-0.1084911312665638	-0.0006325511545932108	-0.3521054022735526	-0.352105402273567	-0.03825484140120323	0.0002676458235831877	-0.1050818781474228	-0.07282356667131962	-0.226050993482494	0.04410658251836879	-0.001462855068821132	-0.2580932524731764	-0.05966824209547687	0.01029350138971608	0.2001345675968745	-49.85358962900052	7.363386288852577	-5.001422702441109	5.924303784585552	-530.6718226955085	-65.7704415404699	-0.0244276804788479	1.579905039559495	0.2449738526862478	1.690746117736524	-5.94941355945895	-0.2012786907137383	-1.533105489780247	0.01527258883345037	-5.085810189651173	-5.085810189651458	-0.6612165037319681	-0.02838188646134729	-1.153220030448177	-0.9487281268441867	-1.730266395529201e-08	-1.78672303184862e-07	1.271766635420446e-07	-5.497768075721521e-09	-3.151612602437431e-08	-9.334009469967096e-08	-3.315155950672587e-08
1.05	-0.4298431263567769	0.01586155307372813	0.6403698714945345	1.543203958372241	-0.3600262031059683	0.1400179442607108	-0.4363320006996551	1.381431441340865	1.381431441341108	-0.008216043588495895	-0.1744774130678832	0.4303608571626178	0.2243446735511168	-0.05621414099196262	0.01176752324038149	0.1141760417111484	-0.2651079433046368	-0.01023965881810609	-0.1237697112201613	7.379419125856104e-05	-0.4028126880988619	-0.4028126880988721	-0.04466578391446039	0.0002294833367856794	-0.1165818846234596	-0.08204034057332968	-0.2264658491026072	0.04424414804580119	-0.001513406513380971	-0.2564629838237432	-0.06013642967265721	0.01035623138488486	0.2004774770656336	-49.94430308894482	7.284886477912435	-4.912218218147912	5.791588926470597	-530.3379563969938	-65.57533729522008	-0.02446178575858804	1.540849092737889	0.2532453434963501	1.670881260294808	-5.883572046734321	-0.1819201759455614	-1.523593422348745	0.1166718649185905	-5.059047765429627	-5.059047765428782	-0.6306791040656826	0.006700198760727976	-1.148372787548935	-0.9060787926738207	-1.997630603656987e-08	-2.019835985649925e-07	1.439108611116916e-07	-7.030288799167319e-09	-3.727761752458712e-08	-9.977219161546403e-08	-3.822247785168813e-08
1.06	-0.4303280608636669	0.01599208576375573	0.6415949789112949	1.540258731533734	-0.3601380298498564	0.138704126482446	-0.4363246716394825	1.377150468289534	1.377150468289766	-0.008694698234623353	-0.1744756028489966	0.4291375408883225	0.2234785323128517	-0.04079707374132614	0.01435567904000508	0.1308190970393101	-0.3238809802435139	-0.01212613838304974	-0.1389826581417195	0.001514393835314215	-0.4533543733825525	-0.4533543733825608	-0.05106256558542632	0.0001206659919699621	-0.1280811643542073	-0.09117418530712293	-0.22688070472159	0.04438171357374707	-0.001563957958624083	-0.2548327151742665	-0.06060461724986477	0.01041896138088695	0.2008203865355758	-50.04084653137336	7.206953972582089	-4.822586341100443	5.661585549237335	-530.1319301909036	-65.37404350561457	-0.02449501729997991	1.550718599682839	0.2649596128550662	1.659072485837598	-5.881696302446388	-0.2019385522128892	-1.519978883372354	0.1621234484746665	-5.052690081327376	-5.052690081328132	-0.6583843352737945	-0.04251285806500436	-1.153074681390132	-0.9321422932007751	-2.31928172921852e-08	-2.258945175469227e-07	1.618295271813137e-07	-7.188907349369406e-09	-4.455715642446787e-08	-1.089948916489444e-07	-4.306651269669484e-08
